<svg
  xmlns="http://www.w3.org/2000/svg" viewBox="-4 -16 100 100"
>
  <style>
    .path { fill: #17191e }
    @media (prefers-color-scheme: dark) {
      .path { fill: #f0f0f0 }
    }
  </style>
  <path
    class="path"
    d="M 51.6 9.2 L 46.1 9.2 Q 42.6 9.2 38.7 9.5 Q 34.8 9.8 31.6 10.8 Q 28.4 11.8 27 13.8 Q 26.2 15 26.2 16.7 Q 26.2 18.5 27.1 20.1 Q 28 21.7 29.4 22.4 L 29.6 22.6 Q 29.6 22.9 29.15 23.15 Q 28.7 23.4 28.2 23.3 Q 27.4 22.8 26.2 21.65 Q 25 20.5 24.05 19.2 Q 23.1 17.9 22.8 17 Q 22.4 15.8 22.4 14.6 Q 22.4 12.2 24.15 10.7 Q 25.9 9.2 28.7 8.4 Q 31.5 7.6 34.75 7.25 Q 38 6.9 41 6.85 Q 44 6.8 46.2 6.8 L 58.3 6.8 Q 58.8 6.7 58.35 7.5 Q 57.9 8.3 57.25 9.05 Q 56.6 9.8 56.2 9.8 Q 55.2 9.7 53.15 10.15 Q 51.1 10.6 50.3 11.2 Q 50.6 15 51.75 20.1 Q 52.9 25.2 54.5 30.85 Q 56.1 36.5 58.05 42.15 Q 60 47.8 61.9 52.7 Q 63.5 48.9 65.5 43.4 Q 67.5 37.9 69.75 31.7 Q 72 25.5 74.45 19.65 Q 76.9 13.8 79.35 9.2 Q 81.8 4.6 84.2 2.4 Q 85.4 1.3 87.1 0.65 Q 88.8 0 90.3 0 Q 91.7 0 92.7 0.65 Q 93.7 1.3 93.6 2.7 L 93.5 6.3 Q 93.5 6.4 93 6.5 Q 92.5 6.6 92.6 6.5 Q 92.7 5.2 91.6 4.65 Q 90.5 4.1 89.8 4.1 Q 87.7 4 85.35 6.7 Q 83 9.4 80.5 13.8 Q 78 18.2 75.6 23.45 Q 73.2 28.7 71.05 33.95 Q 68.9 39.2 67.2 43.6 Q 65.5 48 64.4 50.5 Q 63.4 52.6 63.4 54.6 L 63.4 55.2 Q 63.4 55.5 63.5 55.8 Q 63.5 56.2 63.65 56.7 Q 63.8 57.2 63.9 57.7 Q 63.9 57.8 63.95 57.9 Q 64 58 64 58.2 Q 64 59 63.2 59.6 Q 62.2 60.3 61 60.8 Q 60.3 61.1 59.05 62.35 Q 57.8 63.6 57.5 64.1 Q 57.3 64.3 57.1 64.3 Q 56.8 64.3 56.55 64.1 Q 56.3 63.9 56.4 63.8 Q 57.1 62.9 57.55 61.85 Q 58 60.8 58.4 59.7 Q 57.1 52.7 54.95 45.1 Q 52.8 37.5 50.35 29.85 Q 47.9 22.2 45.7 15.3 Q 45 15.8 44.25 17.7 Q 43.5 19.6 43.2 20.5 Q 41.9 23.9 40.15 28.45 Q 38.4 33 36.25 37.85 Q 34.1 42.7 31.45 47.35 Q 28.8 52 25.6 55.8 Q 24.1 57.7 21.5 59.15 Q 18.9 60.6 16.1 61.45 Q 13.3 62.3 11 62.3 Q 7.9 62.3 5.05 60.55 Q 2.2 58.8 0.8 55.2 Q 0.4 53.9 0.2 52.45 Q 0 51 0 49.6 Q 0 48.2 0.5 48.2 Q 1 48.2 1 49 Q 1 53.7 3.6 56.8 Q 6.2 59.9 9.8 59.9 Q 13.3 59.9 16.8 58.2 Q 20.3 56.5 23.1 53.5 Q 27.6 48.5 30.7 42.9 Q 33.8 37.3 36.2 31.3 Q 38.6 25.3 41.1 19.3 Q 42.6 15.5 45.3 12.7 Q 48 9.9 51.6 9.2 Z"
  />
</svg>
